<?xml version="1.0" encoding="UTF-8" standalone="no"?>
<!DOCTYPE svg PUBLIC "-//W3C//DTD SVG 1.1//EN" "http://www.w3.org/Graphics/SVG/1.1/DTD/svg11.dtd">
<svg width="100%" height="100%" viewBox="0 0 512 512" version="1.1" xmlns="http://www.w3.org/2000/svg" xmlns:xlink="http://www.w3.org/1999/xlink" xml:space="preserve" xmlns:serif="http://www.serif.com/" style="fill-rule:evenodd;clip-rule:evenodd;stroke-linejoin:round;stroke-miterlimit:1.41421;">
    <g id="g965">
        <path id="path981" d="M176,510.835C118.439,508.874 68.353,503.586 31,495.528C9.542,490.899 5.065,489.274 2.274,485.102C-0.964,480.264 -0.654,473.993 4.03,449.587C8.086,428.454 19.997,411.958 37.222,403.619C43.585,400.539 65.67,394.957 104.5,386.615L114.5,384.467L115,334.798L115.5,285.129L118.462,282.038C120.092,280.338 122.792,278.593 124.462,278.161L127.5,277.375L127.773,260.22L128.047,243.065L123.978,240.989C117.177,237.519 111.925,231.989 108.345,224.528C105.064,217.689 105,217.299 104.985,204.028C104.976,196.588 104.56,189.853 104.06,189.063C103.358,187.953 99.771,187.526 88.325,187.19C75.22,186.805 72.953,186.479 68.787,184.379C58.138,179.012 52.373,170.802 51.318,159.498C50.214,147.676 56.946,135.799 68.137,129.828C72.315,127.599 73.643,127.479 99.5,127L126.5,126.5L127.164,108C128.182,79.619 132.893,53.802 141.318,30.429C145.404,19.092 152.351,9.418 159.644,4.911C167.017,0.354 182.107,-1.233 193,1.402C196.025,2.133 204.35,5.666 211.5,9.251C230.496,18.777 239.556,21.123 257.24,21.095C273.823,21.068 285.565,17.905 302.802,8.82C309.018,5.544 316.577,2.219 319.601,1.432C329.709,-1.201 343.407,0.015 351.5,4.263C363.51,10.568 372.045,28.252 379.368,62.008C383.049,78.972 384.175,88.488 384.873,108.5L385.5,126.5L412.5,127C442.967,127.564 443.743,127.743 452.142,136.142C458.342,142.342 460.506,147.932 460.409,157.5C460.311,167.163 457.434,173.761 450.866,179.383C443.398,185.775 439.69,187 427.809,187C422.002,187 415.875,187.275 414.195,187.611L411.141,188.222L410.82,202.92L410.5,217.618L406.73,225.24C403.62,231.526 401.936,233.617 397.114,237.18C393.899,239.556 390.42,241.999 389.384,242.609C387.64,243.636 387.513,245.043 387.671,261.583C387.778,272.788 388.225,279.575 388.871,279.79C391.72,280.74 395.042,284.491 395.96,287.795C396.596,290.087 396.991,309.115 396.994,337.683C397,380.786 397.117,383.902 398.75,384.418C399.712,384.723 402.525,385.368 405,385.852C407.475,386.337 418.725,388.87 430,391.482C472.065,401.225 478.77,403.939 491.118,416.222C502.537,427.582 506.787,438.422 510.936,466.769C513.022,481.021 511.756,485.515 504.712,488.856C491.534,495.107 429.725,504.654 378,508.429C331.425,511.828 237.838,512.943 176,510.835Z" style="fill:rgb(234,197,171);fill-rule:nonzero;"/>
        <path id="path979" d="M173,510.445C108.021,507.906 45.884,500.268 13.5,490.839C3.875,488.036 0,484.056 0,476.972C0,473.17 3.497,452.77 5.566,444.5C9.998,426.787 22.301,411.225 37.5,404.106C44.128,401.002 48.244,399.92 87.5,390.967C102.35,387.58 114.817,384.613 115.204,384.374C115.592,384.134 115.911,367.865 115.914,348.219C115.917,328.574 115.938,306.553 115.96,299.285L116,286.07L119.042,282.605C120.715,280.7 123.362,278.86 124.925,278.517L127.766,277.893L128.474,265.604C128.864,258.845 128.873,250.831 128.494,247.796C127.864,242.759 127.503,242.133 124.35,240.63C118.414,237.799 111.476,230.443 108.414,223.734C105.768,217.937 105.541,216.438 105.18,202.353L104.791,187.205L89.146,186.812C74.602,186.446 73.148,186.233 68.5,183.796C57.905,178.238 52.063,169.095 52.017,158C51.965,145.523 57.96,135.622 68.786,130.306L74.5,127.5L100.597,127.178L126.693,126.855L127.35,110.178C128.623,77.831 134.386,48.472 143.914,25.792C147.731,16.704 151.292,11.948 158.119,6.818C163.953,2.435 167.97,1.065 177.258,0.292C187.343,-0.547 194.878,1.401 207.777,8.182C222.447,15.894 229.985,18.665 241.27,20.495C252.911,22.383 260.089,22.383 271.73,20.495C282.99,18.669 291.251,15.64 305,8.298C316.995,1.893 322.981,0.024 331.5,0.024C348.266,0.024 359.697,7.536 366.956,23.321C377.08,45.34 385,86.206 385,116.423L385,126.828L411.25,127.164L437.5,127.5L443.214,130.306C454.763,135.977 460.637,146.284 459.781,159.379C459.239,167.686 456.921,172.836 451.335,178.144C444.097,185.021 440.179,186.305 424.5,186.936L410.5,187.5L410,203.029C409.518,217.994 409.384,218.792 406.306,225.038C402.7,232.354 399.716,235.529 392.5,239.728L387.5,242.638L387.226,260.426L386.953,278.215L396,286.64L396.035,299.57C396.055,306.681 396.167,328.672 396.285,348.438L396.5,384.375L401.5,385.581C406.496,386.787 421.52,390.256 438.5,394.126C467.071,400.638 472.326,402.43 481.888,408.924C493.611,416.885 503.007,430.49 506.457,444.5C508.609,453.235 512,473.288 512,477.274C512,482.394 508.31,487.137 502.709,489.216C486.679,495.168 429.772,503.838 379.5,507.986C333.769,511.76 236.346,512.92 173,510.445ZM259.381,352.567C260.822,350.678 262.038,348.766 262.084,348.317C262.282,346.398 278.189,333.975 286,329.64C290.675,327.045 295.175,324.53 296,324.052C296.825,323.574 300.763,321.29 304.75,318.977C308.738,316.663 312,314.139 312,313.366C312,312.38 312.721,312.143 314.421,312.569C317.922,313.448 326,308.566 326,305.572C326,304.341 325.675,303.008 325.277,302.61C324.167,301.5 323.995,295.121 325.058,294.464C326.225,293.743 326.319,275.315 325.16,274.599C324.114,273.952 324.27,267.962 325.379,266.183C326.46,264.451 325.393,263.453 323.774,264.682C321.902,266.104 314.464,268.085 307.07,269.132C303.504,269.637 300.23,270.602 299.793,271.275C299.186,272.213 298.82,272.222 298.232,271.316C297.809,270.665 293.078,268.64 287.719,266.816C279.233,263.928 277.021,262.661 270.589,257C264.563,251.696 262.586,249.172 259.852,243.284C258.008,239.316 256.263,236.053 255.973,236.034C255.682,236.015 254.155,238.961 252.579,242.579C247.859,253.414 236.558,263.008 223.82,266.996C219.794,268.256 215.92,270.008 215.211,270.889C214.223,272.116 213.741,272.199 213.151,271.245C212.728,270.56 209.033,269.56 204.941,269.023C194.207,267.615 190.317,266.29 183.682,261.784C175.706,256.368 171.198,251.518 166.848,243.674C160.292,231.853 159.292,215.038 164.478,203.855L166.963,198.5L158.231,198.186C151.498,197.943 148.769,198.258 146.306,199.563C143.356,201.126 142.988,201.13 141.485,199.627C139.723,197.866 137.97,197.656 133.125,198.625C130.033,199.243 130,199.314 130.004,205.375C130.008,212.77 132.507,217.657 136.719,218.509C138.249,218.819 141.817,219.739 144.649,220.555C152.749,222.889 153.08,224.327 153.366,258.434C153.526,277.579 153.973,287.177 154.771,288.63C155.415,289.801 157.642,291.506 159.721,292.419C161.799,293.332 166.875,296.071 171,298.506C175.125,300.942 179.232,302.949 180.128,302.967C181.023,302.985 182.346,303.712 183.068,304.582C184.799,306.667 195.422,312 197.846,312C198.892,312 201.043,313.186 202.626,314.636C204.208,316.086 208.48,318.898 212.119,320.886C231.028,331.213 235.095,333.804 241.877,339.841C245.934,343.452 250.659,348.557 252.377,351.186C254.095,353.814 255.784,355.972 256.131,355.982C256.479,355.992 257.941,354.455 259.381,352.567ZM255,341C255,340.45 255.675,340 256.5,340C257.325,340 258,340.45 258,341C258,341.55 257.325,342 256.5,342C255.675,342 255,341.55 255,341ZM239.886,326.793C239.124,326.363 234.831,324.706 230.346,323.11C221.433,319.94 211.75,313.351 209.44,308.884C207.904,305.913 207.628,302.108 208.599,297.253C209.301,293.746 214.419,290.421 220.562,289.482C223.922,288.968 225.277,289.386 229.793,292.328C237.551,297.382 247.995,300.528 256.5,300.371C263.956,300.234 267.472,299.084 279.798,292.75C287.715,288.681 290.351,288.275 295.282,290.362C299.572,292.178 301.585,294.639 302.939,299.727C303.911,303.377 303.797,304.468 302.101,307.727C299.26,313.189 291.546,319.265 283.5,322.379C279.65,323.869 275.375,325.594 274,326.211C271.131,327.499 242.02,327.996 239.886,326.793ZM185,299C185,298.45 185.45,298 186,298C186.55,298 187,298.45 187,299C187,299.55 186.55,300 186,300C185.45,300 185,299.55 185,299ZM171,285C171,284.45 171.45,284 172,284C172.55,284 173,284.45 173,285C173,285.55 172.55,286 172,286C171.45,286 171,285.55 171,285ZM199,285.059C199,284.541 199.45,283.84 200,283.5C200.55,283.16 201,283.584 201,284.441C201,285.298 200.55,286 200,286C199.45,286 199,285.577 199,285.059ZM227,285C227,284.45 227.675,284 228.5,284C229.325,284 230,284.45 230,285C230,285.55 229.325,286 228.5,286C227.675,286 227,285.55 227,285ZM255,285C255,284.45 255.675,284 256.5,284C257.325,284 258,284.45 258,285C258,285.55 257.325,286 256.5,286C255.675,286 255,285.55 255,285ZM283,285C283,284.45 283.675,284 284.5,284C285.325,284 286,284.45 286,285C286,285.55 285.325,286 284.5,286C283.675,286 283,285.55 283,285ZM312,284.441C312,283.584 312.45,283.16 313,283.5C313.55,283.84 314,284.541 314,285.059C314,285.577 313.55,286 313,286C312.45,286 312,285.298 312,284.441ZM157,271C157,270.45 157.45,270 158,270C158.55,270 159,270.45 159,271C159,271.55 158.55,272 158,272C157.45,272 157,271.55 157,271ZM185,271C185,270.45 185.45,270 186,270C186.55,270 187,270.45 187,271C187,271.55 186.55,272 186,272C185.45,272 185,271.55 185,271ZM241.192,270.925C241.389,270.334 241.978,269.85 242.5,269.85C243.023,269.85 243.611,270.334 243.808,270.925C244.005,271.516 243.417,272 242.5,272C241.583,272 240.995,271.516 241.192,270.925ZM269.192,270.925C269.389,270.334 269.978,269.85 270.5,269.85C271.023,269.85 271.611,270.334 271.808,270.925C272.005,271.516 271.417,272 270.5,272C269.583,272 268.995,271.516 269.192,270.925ZM171,256.5C171,255.675 171.45,255 172,255C172.55,255 173,255.675 173,256.5C173,257.325 172.55,258 172,258C171.45,258 171,257.325 171,256.5ZM255,256.5C255,255.675 255.675,255 256.5,255C257.325,255 258,255.675 258,256.5C258,257.325 257.325,258 256.5,258C255.675,258 255,257.325 255,256.5ZM157,242.5C157,241.675 157.45,241 158,241C158.55,241 159,241.675 159,242.5C159,243.325 158.55,244 158,244C157.45,244 157,243.325 157,242.5ZM157,214C157,213.45 157.45,213 158,213C158.55,213 159,213.45 159,214C159,214.55 158.55,215 158,215C157.45,215 157,214.55 157,214Z" style="fill:rgb(219,181,154);fill-rule:nonzero;"/>
        <path id="path977" d="M186,510.885C127.051,508.764 70.883,503.065 34.72,495.535C1.027,488.519 -1.684,486.434 0.966,469.576C5.854,438.48 9.959,428.005 21.994,415.917C33.48,404.382 37.96,402.561 76,393.974C93.325,390.063 109.3,386.331 111.5,385.681L115.5,384.5L116,335.322C116.487,287.378 116.552,286.074 118.594,283.322C119.745,281.77 122.108,280.027 123.844,279.449C125.581,278.871 127.462,277.938 128.026,277.374C128.666,276.734 128.947,270.036 128.775,259.489L128.5,242.628L122.83,239.316C115.724,235.165 110.627,229.277 107.91,222.079C106.22,217.6 105.826,214.43 105.913,206C105.972,200.225 105.749,193.646 105.417,191.381L104.812,187.262L89.656,186.78C76.846,186.372 73.799,185.964 69.969,184.142C59.32,179.074 53.129,170.473 52.25,159.523C51.268,147.297 57.298,136.506 68.137,131.089L74.319,128L99.96,128C118.569,128 125.929,127.671 126.8,126.8C127.62,125.98 128,121.138 128,111.52C128,83.365 133.744,52.645 143.936,26.298C150.419,9.538 163.841,0.024 181,0.024C189.271,0.024 195.321,2.029 211.647,10.183C231.152,19.924 237.685,21.525 257.5,21.421C276.755,21.321 282.697,19.733 304.446,8.877C320.088,1.069 321.258,0.654 328.852,0.215C335.179,-0.152 338.332,0.21 344.104,1.963C350.542,3.918 352.142,4.94 358.001,10.836C363.429,16.299 365.196,18.942 367.806,25.5C377.959,51.021 384,83.107 384,111.52C384,121.138 384.38,125.98 385.2,126.8C386.071,127.671 393.431,128 412.04,128L437.681,128L443.863,131.089C466.213,142.258 464.727,174.86 441.424,184.596C438.816,185.686 432.978,186.447 424.001,186.868L410.5,187.5L409.933,202.5C409.524,213.321 408.867,218.833 407.577,222.286C405.347,228.249 397.565,236.892 391.552,240.082L387,242.497L387,279.949L389.865,281.43C395.948,284.576 396,285.047 396,336.842C396,362.718 396.395,384.126 396.877,384.424C397.359,384.722 413.184,388.566 432.043,392.967C454.308,398.162 468.467,401.976 472.417,403.844C489.75,412.038 501.787,426.592 506.336,444.852C509.225,456.451 512.354,477.455 511.625,480.357C509.992,486.866 504.308,489.424 480.5,494.369C450.262,500.65 405.906,506.061 361,508.949C315.133,511.898 237.917,512.753 186,510.885ZM260.45,353.068C264.898,347.008 273.822,338.738 280.5,334.488C285.366,331.39 313.376,315.889 343.277,299.745C351.405,295.357 358.605,290.807 359.277,289.634C360.131,288.144 360.651,278.585 361,257.952C361.447,231.532 361.693,228.11 363.328,225.619C365.416,222.436 370.496,220 375.045,220C377.148,220 379.1,219.054 381.077,217.077C383.795,214.359 384,213.621 384,206.552C384,199.181 383.917,198.919 381.252,197.906C377.432,196.453 374.961,194.059 373.349,190.25L371.973,187L354.487,187C344.869,187 337,187.26 337,187.577C337,187.894 338.79,190.653 340.977,193.708C363.272,224.842 340.875,268 302.424,268C284.452,268 268.261,257.807 260.377,241.528C258.519,237.694 257,233.981 257,233.278C257,232.575 256.55,232 256,232C255.45,232 255,232.575 255,233.278C255,233.981 253.481,237.694 251.623,241.528C239.153,267.276 207.089,275.927 183.216,259.986C169.037,250.517 160.538,232.457 162.519,216C163.394,208.728 168.223,197.267 172.536,192.229C174.441,190.003 176,187.916 176,187.591C176,187.266 168.121,187 158.492,187L140.984,187L139.402,190.955C138.198,193.962 136.763,195.42 133.41,197.044L129,199.178L129,206.666C129,213.518 129.236,214.39 131.776,216.93C133.7,218.854 136.078,219.935 139.526,220.452C145.662,221.372 147.514,222.329 149.75,225.737C151.282,228.072 151.568,232.087 152.049,257.952C152.351,274.204 152.958,288.276 153.396,289.224C153.835,290.173 158.988,293.5 164.847,296.617C199.125,314.857 228.33,331.173 234.57,335.568C240.989,340.09 250.674,349.946 253.652,354.989C254.631,356.645 255.746,358 256.13,358C256.515,358 258.459,355.781 260.45,353.068ZM240.202,325.014C222.613,320.848 209.015,311.122 209.004,302.7C208.99,292.385 220.454,287.641 230,294.012C240.534,301.042 253.59,303.496 265,300.591C271.428,298.954 273.569,298.015 283.687,292.398C288.731,289.597 288.991,289.559 293.154,291.009C299.16,293.101 302.346,297.954 301.684,304C301.265,307.823 300.462,309.163 296.346,312.907C290.889,317.87 282.386,322.178 273.54,324.461C267.186,326.102 246.258,326.449 240.202,325.014Z" style="fill:rgb(95,167,217);fill-rule:nonzero;"/>
        <path id="path975" d="M186,510.885C127.051,508.764 70.883,503.065 34.72,495.535C1.027,488.519 -1.684,486.434 0.966,469.576C5.854,438.48 9.959,428.005 21.994,415.917C33.48,404.382 37.96,402.561 76,393.974C93.325,390.063 109.3,386.331 111.5,385.681L115.5,384.5L116,335.322C116.487,287.378 116.552,286.074 118.594,283.322C119.745,281.77 122.108,280.027 123.844,279.449C125.581,278.871 127.462,277.938 128.026,277.374C128.666,276.734 128.947,270.036 128.775,259.489L128.5,242.628L122.83,239.316C115.724,235.165 110.627,229.277 107.91,222.079C106.22,217.6 105.826,214.43 105.913,206C105.972,200.225 105.749,193.646 105.417,191.381L104.812,187.262L89.656,186.78C76.846,186.372 73.799,185.964 69.969,184.142C59.32,179.074 53.129,170.473 52.25,159.523C51.268,147.297 57.298,136.506 68.137,131.089L74.319,128L99.96,128C118.569,128 125.929,127.671 126.8,126.8C127.62,125.98 128,121.138 128,111.52C128,83.365 133.744,52.645 143.936,26.298C150.419,9.538 163.841,0.024 181,0.024C189.271,0.024 195.321,2.029 211.647,10.183C231.152,19.924 237.685,21.525 257.5,21.421C276.755,21.321 282.697,19.733 304.446,8.877C320.088,1.069 321.258,0.654 328.852,0.215C335.179,-0.152 338.332,0.21 344.104,1.963C350.542,3.918 352.142,4.94 358.001,10.836C363.429,16.299 365.196,18.942 367.806,25.5C377.959,51.021 384,83.107 384,111.52C384,121.138 384.38,125.98 385.2,126.8C386.071,127.671 393.431,128 412.04,128L437.681,128L443.863,131.089C466.213,142.258 464.727,174.86 441.424,184.596C438.816,185.686 432.978,186.447 424.001,186.868L410.5,187.5L409.933,202.5C409.524,213.321 408.867,218.833 407.577,222.286C405.347,228.249 397.565,236.892 391.552,240.082L387,242.497L387,279.949L389.865,281.43C395.948,284.576 396,285.047 396,336.842C396,362.718 396.395,384.126 396.877,384.424C397.359,384.722 413.184,388.566 432.043,392.967C454.308,398.162 468.467,401.976 472.417,403.844C489.75,412.038 501.787,426.592 506.336,444.852C509.225,456.451 512.354,477.455 511.625,480.357C509.992,486.866 504.308,489.424 480.5,494.369C450.262,500.65 405.906,506.061 361,508.949C315.133,511.898 237.917,512.753 186,510.885ZM260.45,353.068C264.898,347.008 273.822,338.738 280.5,334.488C285.366,331.39 313.376,315.889 343.277,299.745C351.405,295.357 358.605,290.807 359.277,289.634C360.131,288.144 360.651,278.585 361,257.952C361.447,231.532 361.693,228.11 363.328,225.619C365.416,222.436 370.496,220 375.045,220C377.148,220 379.1,219.054 381.077,217.077C383.795,214.359 384,213.621 384,206.552C384,199.181 383.917,198.919 381.252,197.906C377.432,196.453 374.961,194.059 373.349,190.25L371.973,187L354.487,187C344.869,187 337,187.26 337,187.577C337,187.894 338.79,190.653 340.977,193.708C363.272,224.842 340.875,268 302.424,268C284.452,268 268.261,257.807 260.377,241.528C258.519,237.694 257,233.981 257,233.278C257,232.575 256.55,232 256,232C255.45,232 255,232.575 255,233.278C255,233.981 253.481,237.694 251.623,241.528C239.153,267.276 207.089,275.927 183.216,259.986C169.037,250.517 160.538,232.457 162.519,216C163.394,208.728 168.223,197.267 172.536,192.229C174.441,190.003 176,187.916 176,187.591C176,187.266 168.121,187 158.492,187L140.984,187L139.402,190.955C138.198,193.962 136.763,195.42 133.41,197.044L129,199.178L129,206.666C129,213.518 129.236,214.39 131.776,216.93C133.7,218.854 136.078,219.935 139.526,220.452C145.662,221.372 147.514,222.329 149.75,225.737C151.282,228.072 151.568,232.087 152.049,257.952C152.351,274.204 152.958,288.276 153.396,289.224C153.835,290.173 158.988,293.5 164.847,296.617C199.125,314.857 228.33,331.173 234.57,335.568C240.989,340.09 250.674,349.946 253.652,354.989C254.631,356.645 255.746,358 256.13,358C256.515,358 258.459,355.781 260.45,353.068ZM240.202,325.014C222.613,320.848 209.015,311.122 209.004,302.7C208.99,292.385 220.454,287.641 230,294.012C240.534,301.042 253.59,303.496 265,300.591C271.428,298.954 273.569,298.015 283.687,292.398C288.731,289.597 288.991,289.559 293.154,291.009C299.16,293.101 302.346,297.954 301.684,304C301.265,307.823 300.462,309.163 296.346,312.907C290.889,317.87 282.386,322.178 273.54,324.461C267.186,326.102 246.258,326.449 240.202,325.014ZM359.236,110.569C359.091,101.808 358.716,94.383 358.403,94.069C358.09,93.756 312,93.384 255.981,93.242C175.016,93.037 153.965,93.242 153.333,94.242C152.385,95.744 151.525,123.321 152.359,125.494C152.874,126.836 164.73,126.98 256.22,126.755L359.5,126.5L359.236,110.569Z" style="fill:rgb(110,139,159);fill-rule:nonzero;"/>
        <path id="path973" d="M198.5,511.022C135.33,508.632 76.583,503.011 40.732,495.928C11.647,490.181 4.296,487.563 1.06,481.799C-0.615,478.814 -0.446,477.538 4.937,452.5C8.86,434.251 12.742,426.241 22.38,416.501C32.643,406.129 39.119,403.265 66.5,396.989C107.754,387.533 114.44,385.88 115.72,384.818C116.728,383.981 117.001,373.511 117.004,335.628C117.007,289.942 117.105,287.34 118.926,284.353C120.14,282.362 122.251,280.748 124.673,279.958C126.778,279.272 128.831,278.213 129.235,277.605C130.361,275.91 130.141,245.132 128.987,242.975C128.429,241.933 126.451,240.359 124.592,239.476C118.502,236.587 113.194,231.14 109.852,224.351C106.738,218.025 106.6,217.217 106.06,202.143L105.5,186.5L90,185.932C78.748,185.52 73.448,184.908 70.662,183.697C59.829,178.988 52.993,168.684 53.01,157.09C53.027,145.727 58.658,136.827 69.372,131.232C74.495,128.557 74.526,128.554 101.12,128.183L127.741,127.811L128.44,111.156C129.901,76.386 136.731,42.867 146.523,22.417C154.121,6.549 171.749,-2.575 188.063,0.918C191.053,1.558 200.7,5.675 209.5,10.066C230.746,20.668 237.102,22.326 256.5,22.326C276.244,22.326 282.15,20.737 305,9.282L322.5,0.509L331.5,0.528C339.566,0.544 341.184,0.879 347.089,3.748C359.547,9.799 365.588,18.741 372.368,41.161C379.283,64.026 382.399,83.51 383.56,111.156L384.259,127.811L410.88,128.193C436.523,128.561 437.68,128.662 442.395,130.966C448.287,133.844 453.196,138.566 456.231,144.277C458.046,147.691 458.478,150.127 458.488,157C458.499,164.554 458.172,166.093 455.551,170.824C453.929,173.752 450.931,177.47 448.889,179.088C442.301,184.306 438.621,185.296 423.5,185.921L409.5,186.5L409,202.5C408.576,216.052 408.173,219.207 406.363,223.122C403.455,229.411 397.623,235.631 391.278,239.212L386,242.191L386,279.034L395,287.657L395,335.706C395,373.565 395.272,383.981 396.282,384.819C396.987,385.404 411.5,389.071 428.532,392.968C445.564,396.865 461.75,400.779 464.5,401.666C477.033,405.708 487.692,413.13 495.14,423C501.133,430.943 503.789,437.381 506.571,450.71C507.925,457.194 509.744,465.404 510.614,468.954C513.102,479.104 511.57,483.69 504.5,487.261C500.849,489.105 478.848,494.168 462.5,496.926C435.023,501.562 403.575,505.134 370,507.431C357.625,508.278 340.525,509.446 332,510.027C311.863,511.4 225.49,512.043 198.5,511.022ZM268.954,344.979C276.661,337.341 281.084,334.458 305,321.487C311.875,317.759 320.425,313.04 324,311.001C327.575,308.962 336.945,303.796 344.823,299.52C355.383,293.789 359.439,291.057 360.262,289.123C360.952,287.502 361.592,275.14 361.939,256.771L362.5,227.041L365.097,224.446C366.795,222.75 369.22,221.656 372.097,221.288C381.797,220.047 385,216.128 385,205.499C385,198.989 384.955,198.879 381.73,197.532C377.997,195.972 375.869,193.798 373.87,189.5L372.475,186.5L355.023,186.225C345.424,186.074 336.984,186.176 336.267,186.451C335.369,186.795 336.35,188.747 339.419,192.726C346.694,202.155 348.408,207.516 348.458,221C348.499,232.221 348.411,232.686 344.83,240.186C337.334,255.883 325.791,264.308 307.997,267.068C296.425,268.864 282.532,264.656 272.255,256.243C266.738,251.726 260.39,242.151 258.42,235.372C257.561,232.418 256.472,230 256,230C255.528,230 254.439,232.418 253.58,235.372C251.61,242.151 245.262,251.726 239.745,256.243C218.753,273.428 188.887,270.308 172.85,249.254C165.676,239.835 163.617,233.578 163.553,221C163.502,210.935 163.65,210.19 167.116,203C169.104,198.875 172.154,193.735 173.893,191.578C175.635,189.417 176.673,187.273 176.203,186.803C175.735,186.335 167.558,186.075 158.033,186.226C143.828,186.451 140.582,186.77 139.974,188C139.566,188.825 138.68,190.688 138.006,192.14C137.332,193.592 135.592,195.332 134.14,196.006C132.688,196.68 130.825,197.564 130,197.97C127.792,199.057 127.422,210.981 129.472,214.946C131.233,218.352 135.62,221 139.5,221C140.93,221 143.4,221.672 144.989,222.494C150.9,225.551 150.991,226.026 151.096,254.473C151.154,270.003 151.658,282.65 152.346,285.83L153.5,291.161L191.888,312.096C213.001,323.611 232.351,334.567 234.888,336.444C240.005,340.229 246.599,346.952 252.503,354.406L256.389,359.311L258.877,355.906C260.246,354.033 264.78,349.116 268.954,344.979ZM244.978,325.088C233.608,323.491 222.213,318.628 215.155,312.359C211.469,309.086 210.728,307.781 210.277,303.77C209.622,297.952 211.583,294.49 216.758,292.328C221.301,290.429 224.881,291.134 230.564,295.044C237.501,299.817 245.321,302.177 254.5,302.267C264.166,302.362 271.343,300.397 279.5,295.421C282.863,293.369 287.356,291.538 289.723,291.253C293.536,290.795 294.288,291.088 297.473,294.273C300.479,297.279 301,298.475 301,302.365C301,307.786 297.861,311.956 289.966,317.022C279.551,323.705 260.04,327.203 244.978,325.088ZM302.979,221.469C328.047,196.356 328.327,195.938 321.668,193.565C319.189,192.681 317.793,193.875 296.537,215.065C284.159,227.404 274.026,237.725 274.019,238C273.994,239.049 278.007,245 278.735,244.994C279.156,244.991 290.065,234.405 302.979,221.469ZM210.121,221.073C225.745,205.411 232.809,197.666 232.413,196.633C232.093,195.801 230.685,194.369 229.284,193.45L226.736,191.781L203.868,214.632C191.29,227.201 181,237.841 181,238.277C181,239.997 184.315,244 185.739,244C186.569,244 197.541,233.683 210.121,221.073ZM197.881,210.548C210.289,198.116 217.066,190.616 216.717,189.705C215.943,187.687 209.125,186.838 203.005,187.999C187.222,190.992 176,204.502 176,220.507C176,226.802 176.629,230.014 177.857,229.984C178.211,229.975 187.222,221.229 197.881,210.548ZM291.257,210.064C302.224,199.1 310.939,189.71 310.623,189.199C308.832,186.301 293.889,187.486 286.834,191.085C276.519,196.347 270.321,205.781 269.318,217.745C268.749,224.539 269.354,230 270.677,230C271.028,230 280.289,221.029 291.257,210.064ZM359.264,110.564C359.121,100.962 358.604,94.204 357.964,93.563C357.231,92.831 325.361,92.395 255.459,92.161L154.018,91.823L153.009,94.477C151.896,97.405 151.6,125.267 152.671,126.338C153.041,126.707 199.728,126.895 256.421,126.755L359.5,126.5L359.264,110.564Z" style="fill:rgb(90,118,142);fill-rule:nonzero;"/>
        <path id="path971" d="M204,511.023C127.649,508.18 63.934,501.402 23.5,491.821C2.006,486.728 -2.038,482.989 0.982,471C1.605,468.525 3.425,460.425 5.026,453C9.758,431.054 17.927,417.708 32.114,408.747C40.362,403.538 43.524,402.581 79.239,394.491C97.532,390.346 113.5,386.531 114.723,386.012L116.945,385.068L117.223,335.638C117.536,279.748 116.929,283.714 125.75,279.906L130,278.071L129.985,260.786C129.976,251.278 129.639,243 129.235,242.39C128.831,241.779 126.986,240.503 125.136,239.555C119.822,236.831 113.056,230.032 110.196,224.54C107.765,219.874 107.53,218.293 107.035,203.211C106.609,190.238 106.195,186.73 105,185.976C104.175,185.456 96.975,185.019 89,185.006C75.935,184.983 74.005,184.75 69.5,182.647C63.906,180.037 57.613,173.64 55.227,168.14C54.277,165.95 53.626,161.513 53.593,157C53.547,150.731 53.98,148.656 56.229,144.362C57.709,141.536 60.79,137.623 63.077,135.666C70.257,129.52 73.254,129 101.478,129C119.684,129 126.93,128.67 127.8,127.8C128.615,126.985 129,122.254 129,113.044C129,82.503 137.308,41.114 147.459,21.082C151.053,13.988 157.634,7.806 165.784,3.866C171.605,1.052 173.579,0.612 180.599,0.56C185.053,0.527 189.778,0.994 191.099,1.598C192.419,2.202 200.475,6.135 209,10.338C228.558,19.981 235.707,22.023 252.378,22.729C273.497,23.624 283.689,20.982 307.698,8.393L322.5,0.631L331.5,0.651C339.924,0.669 340.961,0.909 347.696,4.404C359.716,10.642 364.244,17.201 371.101,38.31C378.701,61.708 383,88.735 383,113.121C383,122.972 383.355,127.05 384.279,127.816C385.089,128.489 395.438,128.992 412.529,129.189C442.135,129.53 441.936,129.493 449.551,136.179C455.515,141.416 458.393,148.204 458.378,157C458.369,161.62 457.756,165.898 456.779,168.14C454.381,173.647 448.089,180.039 442.5,182.647C438.101,184.7 435.99,184.982 424.941,184.99C416.44,184.997 411.857,185.404 410.758,186.25C409.414,187.284 409.079,190.092 408.817,202.526C408.509,217.104 408.405,217.744 405.306,224.035C401.7,231.354 398.716,234.529 391.5,238.727L386.5,241.635L386,259.682C385.725,269.607 385.633,278.402 385.796,279.225C385.96,280.048 387.173,281.214 388.494,281.815C389.814,282.417 391.706,284.147 392.697,285.659C394.353,288.186 394.541,292.363 395,336.922L395.5,385.434L400,386.629C402.475,387.287 410.8,389.263 418.5,391.02C472.502,403.342 476.929,404.97 489.101,416.993C499.127,426.896 503.03,434.763 506.968,453C508.572,460.425 510.349,468.3 510.918,470.5C512.761,477.626 512.304,479.931 508.25,483.979C504.909,487.314 503.275,488.009 493.275,490.351C458.681,498.452 408.072,505.007 357,508C346.825,508.596 333.548,509.513 327.495,510.037C312.75,511.315 229.637,511.978 204,511.023ZM242.5,474.507L242.5,461.514L234.5,457.15C230.1,454.75 222.225,450.447 217,447.586C211.775,444.726 199.4,437.967 189.5,432.567C179.6,427.166 164.669,418.979 156.321,414.374C147.972,409.768 140.526,406 139.774,406C138.464,406 127.349,408.489 74.663,420.577C61.552,423.585 49.317,426.676 47.473,427.447C42.301,429.608 35.451,436.523 33.124,441.934C30.155,448.836 26.684,467.187 28.174,468.108C31.97,470.453 78.152,477.78 109,480.93C147.989,484.912 209.494,488.031 239.5,487.548L242.5,487.5L242.5,474.507ZM313,486.524C366.788,485.362 422.284,479.944 462.5,471.929C478.905,468.66 485,467.176 485,466.451C485,463.432 480.406,446.762 478.582,443.163C475.664,437.404 467.4,429.496 461.717,427.024C457.774,425.309 444.5,422.059 400.5,412.032C390.6,409.776 380.475,407.441 378,406.844L373.5,405.757L354.5,416.211C328.756,430.375 288.397,452.399 278,457.956L269.5,462.5L269.215,473.939C269.059,480.23 269.151,485.95 269.419,486.65C269.785,487.603 272.365,487.81 279.704,487.477C285.092,487.232 300.075,486.803 313,486.524ZM281.08,413.463C286.811,410.418 292.175,407.533 293,407.053C298.753,403.703 322.675,390.639 328,387.939C349.134,377.225 354.662,373.319 358.342,366.5C360.33,362.815 360.525,360.787 360.82,340.75C360.996,328.788 360.819,319 360.427,319C360.034,319 344.628,327.212 326.191,337.25C284.193,360.115 279.511,364.055 272.39,382.526C270.033,388.641 269.643,391.317 269.227,404.25C268.937,413.268 269.123,419 269.706,419C270.23,419 275.348,416.508 281.08,413.463ZM280.455,394.545C277.456,391.547 277.351,389.095 280.073,385.635C282.702,382.292 286.858,382.155 289.826,385.314C292.674,388.347 292.578,391.513 289.545,394.545C286.431,397.66 283.569,397.66 280.455,394.545ZM243,406.21C243,392.619 241.543,385.703 236.532,375.5C232.372,367.031 225.86,359.422 218.768,354.743C212.417,350.553 145.961,315.064 143.03,314.298C140.978,313.761 140.966,313.924 141.232,338.559L141.5,363.361L146.338,366.203C148.999,367.766 154.849,371.007 159.338,373.405C186.021,387.659 195.295,392.679 202,396.498C215.564,404.223 241.262,417.932 242.25,417.971C242.663,417.987 243,412.695 243,406.21ZM222.455,394.545C219.374,391.465 219.322,387.986 222.314,385.174C225.488,382.192 229.366,382.378 231.927,385.635C234.649,389.095 234.544,391.547 231.545,394.545C228.431,397.66 225.569,397.66 222.455,394.545ZM262,352.876C266.295,347.108 272.795,340.969 279.681,336.176C282.673,334.093 294.914,327.298 340.671,302.32C351.215,296.564 360.193,291.1 360.623,290.178C361.053,289.255 361.651,274.955 361.952,258.401C362.523,227.018 362.544,226.871 367,223.297C367.825,222.635 370.525,221.791 373,221.421C381.948,220.086 384.812,216.816 385.733,206.887C386.355,200.168 385.349,198.037 380.87,196.589C378.31,195.762 376.934,194.359 375.144,190.75L372.788,186L353.894,186C340.527,186 335,186.33 335,187.129C335,187.75 336.625,190.056 338.61,192.254C346.38,200.854 350.322,215.664 348.175,228.185C341.619,266.419 295.155,280.392 268.683,252.092C263.773,246.843 259.853,239.882 258.063,233.233C257.436,230.905 256.508,229 256,229C255.492,229 254.564,230.905 253.937,233.233C252.147,239.882 248.227,246.843 243.317,252.092C216.815,280.425 170.455,266.27 163.978,227.867C161.975,215.996 165.747,202.42 173.911,192.112C175.61,189.967 177,187.705 177,187.084C177,186.277 171.682,186.033 158.321,186.228L139.642,186.5L138.879,189.357C137.841,193.244 135.272,195.873 131.581,196.826L128.5,197.622L128.209,205.869C127.921,214.022 127.955,214.155 131.209,217.408C133.645,219.844 135.777,220.89 139.417,221.436C144.743,222.234 148.367,224.14 149.634,226.81C150.075,227.74 150.675,241.775 150.968,258C151.341,278.668 151.869,288.144 152.732,289.651C153.466,290.933 168.623,299.782 190.232,311.545C210.18,322.403 228.847,332.782 231.716,334.609C237.923,338.563 247.439,347.87 251.894,354.346C253.655,356.906 255.637,358.982 256.298,358.96C256.959,358.938 259.525,356.2 262,352.876ZM236.679,322.913C223.806,319.243 212.883,312.205 210.945,306.335C209.274,301.272 211.086,295.524 214.989,293.506C219.814,291.011 224.696,291.605 230.396,295.381C236.831,299.643 243.819,302.071 251.5,302.713C262.1,303.598 269.634,301.445 284.279,293.344C288.6,290.954 289.427,290.811 292.918,291.857C299.085,293.705 302.49,300.989 299.999,307.003C297.376,313.336 282.921,321.739 270.647,324.067C262.107,325.686 244.282,325.081 236.679,322.913ZM223.383,252.063C230.775,248.875 235.316,244.749 239.086,237.796C242.328,231.817 242.499,230.996 242.487,221.5C242.475,212.788 242.131,210.766 239.817,205.804C235.822,197.239 229.965,191.966 221.429,189.25C197.736,181.711 176.639,195.294 175.221,219.001C174.816,225.766 175.092,227.264 178.031,234.265C182.532,244.988 189.622,250.989 201.5,254.129C206.477,255.445 218.083,254.349 223.383,252.063ZM317.307,251.717C323.694,248.793 329.282,243.298 332.781,236.5C336.497,229.279 337.056,216.793 334.023,208.748C330.405,199.15 325.374,193.759 316.645,190.125C295.704,181.407 274.746,191.215 269.356,212.255C267.21,220.633 267.991,227.862 271.949,236.238C276.31,245.466 283.442,251.119 294.5,254.111C299.912,255.575 311.547,254.354 317.307,251.717ZM433.066,160.965C435.675,159.568 435.675,154.432 433.066,153.035C431.753,152.333 374.697,152 255.637,152C97.43,152 79.988,152.155 78.571,153.571C76.477,155.665 76.574,159.653 78.75,160.92C81.207,162.351 430.393,162.395 433.066,160.965ZM360.024,126.471C360.999,125.296 361.129,121.408 360.586,109.731C359.686,90.413 360.012,90.861 347.356,91.551C336.426,92.146 336.725,92.415 335.092,80.5C333.761,70.785 330.549,56.557 328.208,50C327.127,46.975 325.239,41.35 324.011,37.5C322.783,33.65 321.438,30.132 321.022,29.683C320.606,29.234 315.881,31.126 310.521,33.888C291.976,43.446 277.299,47 256.37,47C234.707,47 222.212,43.679 197.486,31.35C184.084,24.667 181.999,23.91 178.697,24.529C173.871,25.434 170.332,28.288 168.388,32.842C164.894,41.027 159.816,58.204 157.551,69.5C156.228,76.1 154.639,83.975 154.021,87C153.402,90.025 152.496,94.525 152.007,97C150.635,103.955 150.773,125.373 152.2,126.8C153.118,127.718 177.551,128 256.078,128C347.007,128 358.9,127.825 360.024,126.471Z" style="fill:rgb(74,102,122);fill-rule:nonzero;"/>
        <path id="path969" d="M210,510.908C198.175,510.531 186.025,509.96 183,509.64C179.975,509.319 168.275,508.565 157,507.964C105.689,505.231 55.368,499.007 23.275,491.424C9.907,488.265 6.16,486.684 2.654,482.724C0.088,479.825 -0.129,479.032 0.45,474.667C0.803,472.004 1.511,469.077 2.024,468.163C2.536,467.248 4.112,460.65 5.526,453.5C9.021,435.828 13.662,426.227 23.394,416.546C34.274,405.721 37.756,404.372 79.497,394.805C99.159,390.299 115.865,385.992 116.623,385.234C117.754,384.103 118.004,375.166 118.022,335.179C118.047,280.491 117.667,283.253 125.538,280.549L129.5,279.188L129.771,260.224L130.042,241.26L126.887,239.953C120.362,237.25 114.292,231.339 110.834,224.318C107.571,217.695 107.489,217.207 107,201.525L106.5,185.5L90,184.977C74.046,184.472 73.32,184.356 68.061,181.477C62.488,178.427 57.534,172.672 55.326,166.684C54.68,164.933 54.122,160.575 54.086,157C53.973,145.926 60.073,136.178 69.989,131.588C74.109,129.681 76.84,129.457 101.5,129L128.5,128.5L129.156,111.978C130.284,83.545 133.697,62.368 140.675,40.5C147.746,18.344 154.52,8.595 165.778,4.373C168.375,3.399 170.801,2.163 171.168,1.625C172.23,0.07 187.045,0.369 191,2.025C192.925,2.831 200.107,6.364 206.959,9.876C231.881,22.649 249.414,26.133 271,22.602C283.205,20.606 290.486,17.88 308,8.749L323.5,0.668L331.933,0.634C337.63,0.611 340.496,0.989 340.767,1.8C340.987,2.46 341.819,3 342.617,3C345.488,3 353.584,7.919 357.704,12.166C362.641,17.254 366.417,25.185 371.384,40.895C378.458,63.267 381.63,82.984 382.822,112L383.5,128.5L410.5,129C435.16,129.457 437.891,129.681 442.011,131.588C448.018,134.369 452.798,139.316 455.789,145.851C457.922,150.508 458.184,152.257 457.786,159.139C457.367,166.375 456.987,167.553 453.414,172.691C450.698,176.595 447.818,179.259 444.004,181.395C438.72,184.352 437.965,184.486 424.504,184.833C416.802,185.031 410.05,185.621 409.5,186.143C408.95,186.665 408.259,194.384 407.965,203.296C407.47,218.3 407.236,219.87 404.804,224.5C401.627,230.551 396.662,235.48 390.268,238.932L385.5,241.506L385.227,260.456L384.954,279.406L393.5,286.764L394,335.8C394.275,362.769 394.812,385.147 395.194,385.529C395.576,385.91 411.22,389.776 429.958,394.121C448.697,398.465 466.834,403.147 470.264,404.525C478.024,407.642 487.134,414.375 492.9,421.252C499.51,429.136 503.478,438.577 506.453,453.5C507.878,460.65 509.464,467.248 509.976,468.163C510.489,469.077 511.202,472.046 511.562,474.759C512.189,479.484 512.062,479.844 508.552,483.252C505.716,486.006 503.046,487.308 496.746,489.008C440.461,504.195 310.593,514.114 210,510.908ZM243.5,474.611L243.5,460.723L192.5,432.875C164.45,417.559 140.63,405.021 139.568,405.014C135.834,404.987 49.888,425.007 46.712,426.642C35.937,432.192 31.784,438.604 28.334,455.022C26.178,465.281 25.989,467.407 27.137,468.498C29.773,471.005 68.795,477.755 102,481.449C138.979,485.563 193.656,488.545 231.5,488.511L243.5,488.5L243.5,474.611ZM337,486.938C360.032,485.895 386.202,483.864 408,481.428C441.331,477.702 483.761,469.814 485.485,467.024C485.799,466.516 485.143,461.73 484.027,456.387C480.979,441.791 474.972,432.929 464.255,427.217C459.713,424.796 449.534,422.084 416.768,414.568C393.83,409.305 374.486,405.014 373.782,405.031C373.077,405.048 349.1,417.847 320.5,433.472L268.5,461.881L268.218,474.135C268.062,480.875 268.175,487.015 268.469,487.779C269.045,489.282 291.227,489.01 337,486.938ZM318,407.494C338.075,396.545 358.325,385.506 363,382.962L371.5,378.337L371.764,345.983C371.909,328.188 371.671,313.271 371.234,312.834C370.425,312.025 359.985,317.454 315.511,341.813C287.107,357.371 281.39,361.972 274.769,374.603C269.097,385.422 268.032,391.572 268.015,413.583C268.007,424.079 268.294,432.96 268.653,433.319C269.381,434.047 267.719,434.917 318,407.494ZM281.455,393.545C280.105,392.195 279,390.395 279,389.545C279,387.354 282.629,384 285,384C287.545,384 291,387.414 291,389.927C291,391.779 286.704,396 284.82,396C284.319,396 282.805,394.895 281.455,393.545ZM244,412.71C244,391.256 243.136,386.084 237.707,375.054C233.978,367.479 225.103,357.573 217.687,352.709C211.533,348.672 142.451,312 141.001,312C140.354,312 140,323.26 140,343.845C140,372.936 140.151,375.82 141.75,377.189C142.713,378.013 163.075,389.303 187,402.277C210.925,415.252 232.975,427.239 236,428.916C239.025,430.592 242.063,431.972 242.75,431.982C243.707,431.996 244,427.485 244,412.71ZM223.635,393.927C220.49,391.454 220.272,388.728 223,386C226.385,382.615 231.044,383.961 232.461,388.733C232.945,390.362 232.443,391.648 230.608,393.483C227.557,396.533 226.994,396.569 223.635,393.927ZM262.24,353.504C271.204,341.374 274.478,339.165 321.5,313.523C337.45,304.826 352.632,296.539 355.238,295.108C358.276,293.441 360.406,291.43 361.174,289.504C361.971,287.506 362.489,277.126 362.723,258.5C362.939,241.296 363.5,229.422 364.178,227.703C365.495,224.364 368.889,222.482 374.999,221.699C378.47,221.255 380.242,220.313 382.749,217.576C385.844,214.2 386,213.649 386,206.121L386,198.212L381.25,195.856C377.874,194.181 376.211,192.632 375.5,190.5C373.613,184.839 374.246,185 353.91,185C332.031,185 331.332,185.304 337.502,192.134C350.38,206.388 351.474,229.58 340.073,246.652C332.689,257.71 322.281,263.975 307.906,266.013C286.297,269.078 264.803,254.583 258.582,232.75C257.681,229.588 256.519,227 256,227C255.481,227 254.319,229.588 253.418,232.75C247.154,254.733 225.262,269.343 203.575,266.013C193.953,264.536 185.111,260.201 178.121,253.534C160.728,236.944 159.299,211.225 174.715,192.217C180.344,185.275 179.75,184.998 159.281,185.015C149.502,185.024 140.988,185.361 140.362,185.765C139.737,186.169 138.519,188.195 137.656,190.267C136.436,193.198 135.057,194.475 131.442,196.025L126.795,198.017L127.148,206.443C127.47,214.162 127.746,215.126 130.425,217.922C132.19,219.764 134.768,221.201 136.925,221.545C144.015,222.676 145.209,223.118 147.586,225.495L150,227.909L150,253.123C150,267.231 150.493,281.168 151.12,284.765C152.453,292.42 147.495,289.025 195.256,314.994C214.372,325.389 232.674,335.94 235.926,338.443C241.606,342.813 248.148,349.872 252.894,356.75C254.127,358.538 255.668,359.982 256.318,359.959C256.968,359.936 259.633,357.032 262.24,353.504ZM244.531,323.952C235.599,322.553 226.833,319.338 220.115,314.996C212.953,310.367 210.546,306.423 211.327,300.597C211.961,295.872 214.355,293.531 219.553,292.556C222.671,291.971 224.13,292.454 230.032,296.019C239.041,301.463 244.789,303.165 254.5,303.264C264.049,303.362 271.289,301.415 279.27,296.602C286.545,292.214 288.349,291.655 292.635,292.459C296.929,293.265 299.991,297.827 299.996,303.43C299.999,306.793 299.361,307.955 295.575,311.481C290.433,316.27 282.566,320.357 274.397,322.485C266.975,324.418 252.158,325.146 244.531,323.952ZM219.972,254.416C230.491,251.292 238.309,244.102 242.087,234.079C244.855,226.735 244.459,212.909 241.278,205.824C238.17,198.904 231.938,192.707 224.747,189.385C219.248,186.845 217.363,186.5 209,186.501C197.677,186.502 192.745,188.352 185.162,195.445C177.805,202.327 174.556,210.174 174.582,221C174.599,228.351 175.013,230.379 177.64,236C185.107,251.974 202.588,259.578 219.972,254.416ZM318.408,252.414C330.378,246.552 337,235.364 337,221C337,206.267 330.248,195.157 317.8,189.409C312.243,186.843 310.379,186.5 302,186.5C293.644,186.5 291.821,186.833 286.858,189.27C279.957,192.66 273.685,199.272 270.208,206.825C266.445,214.999 266.521,226.943 270.391,235.5C276.673,249.392 288.509,256.36 304.563,255.618C310.88,255.325 313.878,254.632 318.408,252.414ZM434.429,161.429C436.761,159.096 436.417,154.405 433.777,152.557C431.786,151.162 413.273,151 256,151C62.6,151 76,150.554 76,156.985C76,163.497 61.136,163 256,163C415.446,163 433.012,162.845 434.429,161.429ZM360.5,112.5C360.5,101.321 359.917,94.189 358.211,84.5C353.585,58.233 345.387,31.591 340.524,27.023C338.871,25.47 336.438,24.556 333.1,24.236C328.509,23.794 327.092,24.285 314.317,30.734C291.285,42.361 277.502,46 256.5,46C235.713,46 221.667,42.223 196.85,29.961C189.102,26.132 181.677,23 180.349,23C176.573,23 171.316,25.588 169.518,28.332C165.056,35.142 156.955,63.263 153.338,84.5C151.699,94.12 150.346,123.854 151.42,126.652C151.855,127.785 169.157,127.967 256.22,127.755L360.5,127.5L360.5,112.5Z" style="fill:rgb(37,77,105);fill-rule:nonzero;"/>
        <path id="path967" d="M219,511.072C202.665,510.689 196.336,510.304 202.5,510.071C210.449,509.769 207.988,509.528 190.5,508.894C167.817,508.072 121.424,505.291 117,504.488C115.625,504.238 107.317,503.334 98.537,502.479C69.383,499.64 42.479,495.301 20.736,489.932C8.883,487.006 4.652,485.141 3.591,482.377C3.274,481.55 2.612,481.122 2.121,481.425C1.629,481.729 0.964,480.97 0.642,479.739C-0.073,477.005 1.027,469.425 1.927,470.882C2.282,471.456 3.863,465.53 5.441,457.713C8.996,440.093 11.741,432.518 17.49,424.461C27.683,410.177 36.91,405.179 64.5,398.994C95.427,392.06 115.865,387.202 116.968,386.52C117.654,386.096 118,370.18 118,339.066C118,313.317 118.28,290.85 118.622,289.139C119.388,285.31 123.526,281 126.436,281C130.695,281 131,279.582 131,259.817L131,241.034L126.033,238.517C119.701,235.308 114.729,230.325 111.266,223.717C108.679,218.779 108.513,217.643 108.176,202.5C107.981,193.7 107.388,185.976 106.859,185.335C106.222,184.564 100.417,184.053 89.698,183.824C71.242,183.429 68.434,182.544 61.585,174.962C56.397,169.22 54.666,164.709 54.688,156.997C54.721,145.852 61.58,135.797 71.747,131.994C76.553,130.195 79.551,130 102.338,130C120.653,130 127.93,129.67 128.8,128.8C129.587,128.013 130.003,123.801 130.009,116.55C130.031,87.36 135.065,57.648 144.247,32.5C150.927,14.205 157.362,7.213 171,3.428C173.567,2.715 174.641,2.087 173.5,1.964C172.4,1.846 173.483,1.429 175.907,1.037C181.516,0.129 191.395,0.949 188.495,2.081C186.747,2.763 186.83,2.868 189.166,2.93C190.632,2.968 198.507,6.393 206.666,10.539C230.643,22.725 246.852,26.401 266.346,24.074C279.639,22.486 291.134,18.561 307.585,9.992C314.968,6.146 322.018,2.968 323.254,2.93C325.377,2.863 325.391,2.817 323.505,2.081C320.58,0.939 330.208,0.168 336.5,1.04C339.25,1.421 340.6,1.824 339.5,1.936C338.364,2.051 339.607,2.786 342.376,3.637C354.773,7.444 361.164,14.536 367.301,31.296C376.94,57.617 381.968,86.801 381.991,116.55C381.997,123.801 382.413,128.013 383.2,128.8C384.07,129.67 391.347,130 409.662,130C432.449,130 435.447,130.195 440.253,131.994C454.31,137.253 461.567,154.934 455.128,168.237C452.067,174.559 444.297,181.436 438.59,182.873C436.129,183.493 428.801,184.007 422.307,184.015C415.813,184.024 409.952,184.379 409.282,184.804C408.444,185.337 407.928,190.437 407.625,201.207C407.221,215.561 406.963,217.333 404.457,222.916C401.43,229.661 395.056,236.246 389.19,238.689C387.16,239.534 385.169,240.737 384.765,241.362C384.361,241.988 384.02,250.825 384.007,261L383.984,279.5L388.742,283.644L393.5,287.787L393.787,336.631C393.945,363.494 394.416,385.816 394.833,386.233C395.251,386.651 411.321,390.602 430.546,395.014C471.503,404.414 475.929,406.139 487.641,417.264C498.084,427.184 501.983,435.346 506.241,456.197C508.005,464.831 509.733,471.432 510.083,470.866C511.157,469.128 512.058,477.683 511.062,480.167C510.548,481.45 510.098,481.903 510.063,481.173C510.029,480.444 508.841,481.224 507.425,482.907C504.304,486.616 500.327,487.883 477.371,492.48C441.032,499.756 403.537,504.002 344.5,507.525C331.3,508.313 315.1,509.053 308.5,509.17L296.5,509.383L306,510C313.589,510.493 311.458,510.656 295.409,510.809C284.359,510.914 268.609,511.156 260.409,511.347C252.209,511.539 233.575,511.415 219,511.072ZM244.8,488.8C246.497,487.103 246.453,462.944 244.75,460.833C244.063,459.981 241.025,457.914 238,456.239C234.975,454.564 230.7,452.187 228.5,450.957C226.3,449.727 221.8,447.26 218.5,445.476C206.883,439.195 176.465,422.651 173.5,421.001C171.85,420.083 163.707,415.648 155.404,411.145L140.307,402.958L133.404,404.516C123.536,406.744 105.6,410.856 98,412.632C94.425,413.468 82.5,416.165 71.5,418.626C60.5,421.088 49.25,424.141 46.5,425.41C35.977,430.269 30.034,439.169 26.896,454.769C24.508,466.637 24.48,469.704 26.75,470.408C37.371,473.702 72.551,479.437 103.5,482.919C150.628,488.223 241.591,492.009 244.8,488.8ZM352.841,487.471C393.843,484.773 415.202,482.465 445.5,477.456C472.072,473.063 484.954,470.02 486.351,467.806C487.849,465.431 484.781,450.116 481.438,443.284C478.079,436.418 470.722,428.906 464.04,425.52C460.417,423.684 445.381,419.763 416.13,413.025L373.5,403.207L361,409.979C354.125,413.704 341.525,420.547 333,425.187C324.475,429.826 306.475,439.619 293,446.95C279.525,454.281 267.938,460.977 267.25,461.83C266.404,462.88 266,467.298 266,475.491C266,483.808 266.391,488.013 267.25,488.92C268.82,490.578 318.374,489.739 352.841,487.471ZM312,412.546C326.025,404.907 344.7,394.741 353.5,389.955C362.3,385.169 370.513,380.312 371.75,379.162C373.992,377.078 374,376.965 374,345.227C374,320.393 373.709,312.984 372.677,311.573C371.271,309.65 371.603,309.486 328,333.484C322.775,336.359 312.019,342.264 304.098,346.606C287.018,355.967 279.498,362.659 273.772,373.592C267.524,385.521 266.7,389.961 266.552,412.5C266.48,423.5 266.798,433.299 267.259,434.275C268.231,436.334 269.147,435.889 312,412.546ZM282.2,392.8C278.806,389.406 282.797,383.751 287,386C290.53,387.889 289.002,394 285,394C284.12,394 282.86,393.46 282.2,392.8ZM245.393,432.418C246.384,429.835 246.083,401.778 244.973,393.322C243.419,381.48 236.827,368.629 227.594,359.441C223.692,355.558 217.575,350.766 214,348.792C198.555,340.263 140.9,310 140.096,310C138.247,310 138,314.053 138,344.391C138,367.888 138.309,375.997 139.25,377.15C140.733,378.969 144.576,381.168 173.5,396.751C184.755,402.815 216.639,420.246 235.5,430.646C242.195,434.338 244.498,434.751 245.393,432.418ZM224.2,392.8C220.806,389.406 224.797,383.751 229,386C232.53,387.889 231.002,394 227,394C226.12,394 224.86,393.46 224.2,392.8ZM263.775,353.023C271.02,343.857 278.79,337.767 293.235,329.932C326.928,311.657 359.652,293.665 360.604,292.893C362.836,291.082 364,277.621 364,253.613C364,229.489 364.035,229.07 366.3,226.438C367.964,224.503 370.039,223.537 373.814,222.94C383.964,221.336 387.426,216.322 386.818,204.104C386.486,197.433 386.464,197.401 380.5,194.792C378.37,193.86 377.081,192.269 376.053,189.305C375.145,186.684 373.842,184.925 372.553,184.579C371.424,184.276 362.599,184.021 352.941,184.014C330.84,183.996 329.877,184.427 336.06,191.565C342.663,199.189 346.261,207.795 346.81,217.282C347.64,231.611 343.849,242.113 334.194,252.236C323.82,263.112 307.45,268.126 293.532,264.691C283.699,262.265 278.284,259.28 271.388,252.484C264.429,245.626 261.765,240.986 259.227,231.298C256.864,222.276 255.118,222.33 252.732,231.5C243.584,266.653 200.882,277.378 176.29,250.698C168.127,241.843 164.455,230.983 165.21,217.934C165.585,211.463 166.307,208.764 169.268,202.78C171.249,198.776 174.558,193.53 176.621,191.123C180.198,186.951 180.285,186.682 178.495,185.373C177.07,184.331 172.386,184.004 159.059,184.015C149.401,184.024 140.931,184.392 140.235,184.833C139.54,185.275 137.965,187.608 136.735,190.018C135.177,193.073 133.592,194.683 131.5,195.334C126.461,196.904 126,197.746 126,205.388C126,210.396 126.546,213.549 127.827,215.938C129.877,219.761 135.088,223 139.187,223C142.961,223 146.58,224.822 147.851,227.36C148.505,228.667 149.075,240.403 149.315,257.5C149.553,274.456 150.153,286.88 150.837,289C151.798,291.977 153.201,293.162 160.233,296.93C168.352,301.281 199.37,318.174 219.946,329.45C235.74,338.106 242.262,343.707 252.317,357.25C253.849,359.313 255.641,360.991 256.301,360.98C256.96,360.969 260.324,357.389 263.775,353.023ZM244.381,323.069C232.638,321.191 220.088,315.435 214.434,309.334C210.974,305.601 211.044,299.247 214.581,295.924C218.516,292.227 224.141,292.684 230.741,297.237C237.638,301.995 244.896,304 255.222,304C265.44,304 271.415,302.334 280.204,297.033C288.665,291.93 292.72,291.69 296.411,296.077C298.261,298.275 299,300.306 299,303.192C299,306.581 298.397,307.783 295.25,310.666C286.443,318.735 274.812,322.911 259.5,323.502C254,323.714 247.197,323.519 244.381,323.069ZM221.572,255.345C236.802,250.229 245.196,238.125 245.39,221C245.476,213.435 245.141,211.769 242.342,205.849C238.488,197.696 232.612,191.647 225.148,188.148C220.219,185.837 218.227,185.5 209.5,185.5C200.752,185.5 198.787,185.834 193.804,188.17C186.525,191.582 179.566,198.548 176.188,205.804C173.904,210.71 173.536,212.817 173.538,221C173.54,229.148 173.913,231.301 176.16,236.125C179.879,244.111 185.086,249.405 193.233,253.48C199.563,256.647 201.089,257 208.456,257C213.424,257 218.582,256.349 221.572,255.345ZM318.833,253.447C334.4,245.659 341.927,229.023 337.586,211.998C333.76,196.993 322.798,187.281 307.358,185.219C299.428,184.161 292.912,185.276 285.386,188.981C278.207,192.515 273.212,197.784 269.286,205.963C265.695,213.441 265.485,226.601 268.821,235.079C274.35,249.133 286.344,256.772 303.116,256.923C311.065,256.994 312.28,256.725 318.833,253.447ZM435.961,161.811C438.562,159.02 438.55,155.969 435.927,152.635L433.855,150L256.382,150L78.909,150L76.455,152.455C73.422,155.487 73.326,158.653 76.174,161.686L78.349,164L433.922,164L435.961,161.811ZM361.22,128.18C362.509,126.891 362.352,99.467 361.016,92.5C360.489,89.75 359.387,83.225 358.567,78C356.774,66.574 351.302,46.31 346.991,35.134C344.213,27.93 343.366,26.713 339.589,24.499C332.749,20.491 329.755,21.052 313.712,29.353C297.42,37.781 287.479,41.316 274,43.472C262.051,45.384 252.197,45.395 239.697,43.511C226.505,41.522 215.149,37.56 197.999,28.964C184.999,22.449 183.223,21.82 178.958,22.23C171.942,22.904 168.7,25.768 165.064,34.5C160.836,44.658 154.428,69.087 152.497,82.414C151.627,88.417 150.698,93.679 150.434,94.107C149.51,95.601 149.631,127.03 150.563,127.916C151.078,128.405 152.368,128.962 153.429,129.153C158.554,130.075 360.27,129.13 361.22,128.18Z" style="fill:rgb(11,57,89);fill-rule:nonzero;"/>
    </g>
</svg>
